<svg viewBox="0 0 1200 800" xmlns="http://www.w3.org/2000/svg">
  <!-- Background -->
  <rect width="1200" height="800" fill="#f8fafc"/>
  
  <!-- Title -->
  <text x="600" y="40" text-anchor="middle" font-size="24" font-weight="bold" fill="#1e293b">OmniChat Technical Architecture</text>
  
  <!-- Client Layer -->
  <g id="client-layer">
    <rect x="50" y="80" width="300" height="200" fill="#e0f2fe" stroke="#0284c7" stroke-width="2" rx="8"/>
    <text x="200" y="110" text-anchor="middle" font-size="18" font-weight="bold" fill="#0c4a6e">Client Layer</text>
    
    <!-- Next.js App -->
    <rect x="70" y="130" width="260" height="60" fill="#ffffff" stroke="#64748b" stroke-width="1" rx="4"/>
    <text x="200" y="155" text-anchor="middle" font-size="14" font-weight="500" fill="#334155">Next.js 14 App Router</text>
    <text x="200" y="175" text-anchor="middle" font-size="12" fill="#64748b">React, TypeScript, Tailwind</text>
    
    <!-- UI Components -->
    <rect x="70" y="200" width="120" height="40" fill="#ffffff" stroke="#64748b" stroke-width="1" rx="4"/>
    <text x="130" y="225" text-anchor="middle" font-size="12" fill="#334155">shadcn/ui</text>
    
    <!-- State Management -->
    <rect x="210" y="200" width="120" height="40" fill="#ffffff" stroke="#64748b" stroke-width="1" rx="4"/>
    <text x="270" y="225" text-anchor="middle" font-size="12" fill="#334155">Zustand Store</text>
  </g>
  
  <!-- Edge Layer -->
  <g id="edge-layer">
    <rect x="450" y="80" width="300" height="200" fill="#fef3c7" stroke="#f59e0b" stroke-width="2" rx="8"/>
    <text x="600" y="110" text-anchor="middle" font-size="18" font-weight="bold" fill="#78350f">Cloudflare Edge</text>
    
    <!-- Pages -->
    <rect x="470" y="130" width="260" height="40" fill="#ffffff" stroke="#64748b" stroke-width="1" rx="4"/>
    <text x="600" y="155" text-anchor="middle" font-size="14" fill="#334155">Cloudflare Pages</text>
    
    <!-- Workers -->
    <rect x="470" y="180" width="260" height="40" fill="#ffffff" stroke="#64748b" stroke-width="1" rx="4"/>
    <text x="600" y="205" text-anchor="middle" font-size="14" fill="#334155">Edge Functions (Workers)</text>
    
    <!-- Middleware -->
    <rect x="470" y="230" width="120" height="30" fill="#ffffff" stroke="#64748b" stroke-width="1" rx="4"/>
    <text x="530" y="250" text-anchor="middle" font-size="12" fill="#334155">Auth Middleware</text>
    
    <rect x="610" y="230" width="120" height="30" fill="#ffffff" stroke="#64748b" stroke-width="1" rx="4"/>
    <text x="670" y="250" text-anchor="middle" font-size="12" fill="#334155">Rate Limiting</text>
  </g>
  
  <!-- External Services -->
  <g id="external-services">
    <rect x="850" y="80" width="300" height="200" fill="#e0e7ff" stroke="#6366f1" stroke-width="2" rx="8"/>
    <text x="1000" y="110" text-anchor="middle" font-size="18" font-weight="bold" fill="#312e81">External Services</text>
    
    <!-- Auth -->
    <rect x="870" y="130" width="120" height="30" fill="#ffffff" stroke="#64748b" stroke-width="1" rx="4"/>
    <text x="930" y="150" text-anchor="middle" font-size="12" fill="#334155">Clerk Auth</text>
    
    <!-- Payments -->
    <rect x="1010" y="130" width="120" height="30" fill="#ffffff" stroke="#64748b" stroke-width="1" rx="4"/>
    <text x="1070" y="150" text-anchor="middle" font-size="12" fill="#334155">Stripe Payments</text>
    
    <!-- LLM Providers -->
    <rect x="870" y="170" width="80" height="25" fill="#ffffff" stroke="#64748b" stroke-width="1" rx="4"/>
    <text x="910" y="187" text-anchor="middle" font-size="11" fill="#334155">OpenAI</text>
    
    <rect x="960" y="170" width="80" height="25" fill="#ffffff" stroke="#64748b" stroke-width="1" rx="4"/>
    <text x="1000" y="187" text-anchor="middle" font-size="11" fill="#334155">Anthropic</text>
    
    <rect x="1050" y="170" width="80" height="25" fill="#ffffff" stroke="#64748b" stroke-width="1" rx="4"/>
    <text x="1090" y="187" text-anchor="middle" font-size="11" fill="#334155">Google AI</text>
    
    <!-- Local Ollama -->
    <rect x="870" y="205" width="260" height="30" fill="#ffffff" stroke="#64748b" stroke-width="1" rx="4"/>
    <text x="1000" y="225" text-anchor="middle" font-size="12" fill="#334155">Local Ollama Models</text>
    
    <!-- AI SDK -->
    <rect x="870" y="245" width="260" height="25" fill="#fef3c7" stroke="#f59e0b" stroke-width="1" rx="4"/>
    <text x="1000" y="262" text-anchor="middle" font-size="11" fill="#78350f">Vercel AI SDK (Unified Interface)</text>
  </g>
  
  <!-- Data Layer -->
  <g id="data-layer">
    <rect x="50" y="350" width="500" height="200" fill="#dcfce7" stroke="#16a34a" stroke-width="2" rx="8"/>
    <text x="300" y="380" text-anchor="middle" font-size="18" font-weight="bold" fill="#14532d">Cloudflare Data Layer</text>
    
    <!-- D1 Database -->
    <rect x="70" y="400" width="200" height="120" fill="#ffffff" stroke="#64748b" stroke-width="1" rx="4"/>
    <text x="170" y="425" text-anchor="middle" font-size="14" font-weight="500" fill="#334155">D1 SQLite Database</text>
    <text x="170" y="445" text-anchor="middle" font-size="11" fill="#64748b">• Users</text>
    <text x="170" y="460" text-anchor="middle" font-size="11" fill="#64748b">• Conversations</text>
    <text x="170" y="475" text-anchor="middle" font-size="11" fill="#64748b">• Messages</text>
    <text x="170" y="490" text-anchor="middle" font-size="11" fill="#64748b">• Subscriptions</text>
    <text x="170" y="505" text-anchor="middle" font-size="11" fill="#64748b">• API Usage</text>
    
    <!-- R2 Storage -->
    <rect x="290" y="400" width="120" height="60" fill="#ffffff" stroke="#64748b" stroke-width="1" rx="4"/>
    <text x="350" y="425" text-anchor="middle" font-size="14" font-weight="500" fill="#334155">R2 Storage</text>
    <text x="350" y="445" text-anchor="middle" font-size="11" fill="#64748b">File Attachments</text>
    
    <!-- KV Store -->
    <rect x="430" y="400" width="100" height="60" fill="#ffffff" stroke="#64748b" stroke-width="1" rx="4"/>
    <text x="480" y="425" text-anchor="middle" font-size="14" font-weight="500" fill="#334155">KV Store</text>
    <text x="480" y="445" text-anchor="middle" font-size="11" fill="#64748b">Sessions/Cache</text>
    
    <!-- Drizzle ORM -->
    <rect x="70" y="480" width="200" height="30" fill="#fef3c7" stroke="#f59e0b" stroke-width="1" rx="4"/>
    <text x="170" y="500" text-anchor="middle" font-size="12" fill="#78350f">Drizzle ORM</text>
  </g>
  
  <!-- Features Box -->
  <g id="features">
    <rect x="650" y="350" width="500" height="200" fill="#f3e8ff" stroke="#9333ea" stroke-width="2" rx="8"/>
    <text x="900" y="380" text-anchor="middle" font-size="18" font-weight="bold" fill="#581c87">Key Features</text>
    
    <!-- Feature List -->
    <text x="680" y="410" font-size="14" fill="#334155">✓ Multi-LLM Support (OpenAI, Anthropic, Google, Ollama)</text>
    <text x="680" y="435" font-size="14" fill="#334155">✓ Real-time Streaming Responses</text>
    <text x="680" y="460" font-size="14" fill="#334155">✓ Persistent Chat History with Search</text>
    <text x="680" y="485" font-size="14" fill="#334155">✓ File Attachments (Images, PDFs, Docs)</text>
    <text x="680" y="510" font-size="14" fill="#334155">✓ Chat Branching &amp; Message Tree</text>
    <text x="680" y="535" font-size="14" fill="#334155">✓ Voice Input/Output, Code Highlighting</text>
  </g>
  
  <!-- Development Tools -->
  <g id="dev-tools">
    <rect x="50" y="600" width="1100" height="120" fill="#f8fafc" stroke="#64748b" stroke-width="1" stroke-dasharray="5,5" rx="8"/>
    <text x="600" y="630" text-anchor="middle" font-size="16" font-weight="bold" fill="#475569">Development &amp; Deployment</text>
    
    <!-- Tools -->
    <rect x="80" y="650" width="120" height="40" fill="#ffffff" stroke="#64748b" stroke-width="1" rx="4"/>
    <text x="140" y="675" text-anchor="middle" font-size="12" fill="#334155">GitHub Actions</text>
    
    <rect x="220" y="650" width="120" height="40" fill="#ffffff" stroke="#64748b" stroke-width="1" rx="4"/>
    <text x="280" y="675" text-anchor="middle" font-size="12" fill="#334155">Wrangler CLI</text>
    
    <rect x="360" y="650" width="120" height="40" fill="#ffffff" stroke="#64748b" stroke-width="1" rx="4"/>
    <text x="420" y="675" text-anchor="middle" font-size="12" fill="#334155">TypeScript</text>
    
    <rect x="500" y="650" width="120" height="40" fill="#ffffff" stroke="#64748b" stroke-width="1" rx="4"/>
    <text x="560" y="675" text-anchor="middle" font-size="12" fill="#334155">ESLint/Prettier</text>
    
    <rect x="640" y="650" width="120" height="40" fill="#ffffff" stroke="#64748b" stroke-width="1" rx="4"/>
    <text x="700" y="675" text-anchor="middle" font-size="12" fill="#334155">Drizzle Kit</text>
    
    <rect x="780" y="650" width="120" height="40" fill="#ffffff" stroke="#64748b" stroke-width="1" rx="4"/>
    <text x="840" y="675" text-anchor="middle" font-size="12" fill="#334155">Husky Hooks</text>
  </g>
  
  <!-- Connection Lines -->
  <!-- Client to Edge -->
  <line x1="350" y1="180" x2="450" y2="180" stroke="#64748b" stroke-width="2" marker-end="url(#arrowhead)"/>
  
  <!-- Edge to External -->
  <line x1="750" y1="180" x2="850" y2="180" stroke="#64748b" stroke-width="2" marker-end="url(#arrowhead)"/>
  
  <!-- Edge to Data -->
  <line x1="600" y1="280" x2="300" y2="350" stroke="#64748b" stroke-width="2" marker-end="url(#arrowhead)"/>
  
  <!-- Arrow marker definition -->
  <defs>
    <marker id="arrowhead" markerWidth="10" markerHeight="7" refX="9" refY="3.5" orient="auto">
      <polygon points="0 0, 10 3.5, 0 7" fill="#64748b"/>
    </marker>
  </defs>
</svg>